<svg width="16" height="16" viewBox="0 0 16 16" fill="none" xmlns="http://www.w3.org/2000/svg">
<g clip-path="url(#clip0_10739_25538)">
<path d="M12.4235 10.4494L13.5678 7.01647C14.5674 4.01755 15.0672 2.51809 14.2757 1.72657C13.4842 0.935061 11.9847 1.43488 8.98581 2.43452L5.55292 3.57882C3.1325 4.38563 1.92229 4.78903 1.57838 5.38059C1.25122 5.94335 1.25122 6.6384 1.57838 7.20116C1.92229 7.79272 3.1325 8.19613 5.55292 9.00293C5.94156 9.13248 6.13587 9.19725 6.2983 9.30599C6.4557 9.41136 6.59092 9.54658 6.6963 9.70399C6.80503 9.86641 6.8698 10.0607 6.99935 10.4494C7.80615 12.8698 8.20955 14.08 8.80112 14.4239C9.36388 14.7511 10.0589 14.7511 10.6217 14.4239C11.2132 14.08 11.6167 12.8698 12.4235 10.4494Z" stroke="#667085" stroke-width="1.25"/>
<path d="M10.8956 5.989C11.141 5.74628 11.1432 5.35055 10.9005 5.10513C10.6578 4.8597 10.2621 4.85751 10.0166 5.10023L10.8956 5.989ZM6.75684 9.20312L7.19632 9.64751L10.8956 5.989L10.4561 5.54461L10.0166 5.10023L6.31735 8.75874L6.75684 9.20312Z" fill="#667085"/>
</g>
<defs>
<clipPath id="clip0_10739_25538">
<rect width="16" height="16" fill="white"/>
</clipPath>
</defs>
</svg>
